<?xml version="1.0" standalone="no"?><!DOCTYPE svg PUBLIC "-//W3C//DTD SVG 1.1//EN" "http://www.w3.org/Graphics/SVG/1.1/DTD/svg11.dtd"><svg class="icon" width="250px" height="250.00px" viewBox="0 0 1024 1024" version="1.1" xmlns="http://www.w3.org/2000/svg"><path d="M773.12 543.573333H246.613333c-26.026667-0.426667-46.933333-20.224-46.933333-44.544V498.346667c0-24.746667 21.077333-45.226667 46.933333-45.226667h526.506667a46.08 46.08 0 0 1 46.762667 45.909333c0 24.32-20.821333 44.032-46.762667 44.629334z m0 221.866667H246.613333c-26.026667-0.512-46.933333-20.224-46.933333-44.544V720.213333c0-24.917333 21.077333-45.226667 46.933333-45.226666h526.506667a46.08 46.08 0 0 1 46.762667 45.909333c0 24.234667-20.821333 44.032-46.762667 44.544zM199.68 276.48c0-24.746667 21.077333-45.226667 46.933333-45.226667h331.946667a46.250667 46.250667 0 0 1 46.933333 45.994667c0 24.32-20.906667 44.032-46.933333 44.544H246.613333c-26.026667-0.512-46.933333-20.224-46.933333-44.544V276.48zM929.28 0H93.354667C42.069333 0 0 40.618667 0 90.197333v842.410667c0 49.664 41.984 90.282667 93.354667 90.282667h835.925333c51.370667 0 93.354667-40.618667 93.354667-90.282667V90.197333C1022.634667 40.618667 980.650667 0 929.28 0z" /></svg>